HIERARCHY
ROOT Hips
{
  OFFSET 279.157 85.6768 304.565
  CHANNELS 6 Xposition Yposition Zposition Zrotation Xrotation Yrotation
  JOINT LeftUpLeg
  {
    OFFSET 8.64259 1.95398 -2.38835
    CHANNELS 3 Zrotation Xrotation Yrotation
    JOINT LeftLeg
    {
      OFFSET 43.7702 0 0
      CHANNELS 3 Zrotation Xrotation Yrotation
      JOINT LeftFoot
      {
        OFFSET 40.6238 0 0
        CHANNELS 3 Zrotation Xrotation Yrotation
        JOINT LeftToeBase
        {
          OFFSET 12.7242 0 0
          CHANNELS 3 Zrotation Xrotation Yrotation
          End Site
          {
            OFFSET 0 0 0
          }
        }
      }
    }
  }
  JOINT RightUpLeg
  {
    OFFSET -8.2249 1.95398 -2.59336
    CHANNELS 3 Zrotation Xrotation Yrotation
    JOINT RightLeg
    {
      OFFSET 43.5653 0 0
      CHANNELS 3 Zrotation Xrotation Yrotation
      JOINT RightFoot
      {
        OFFSET 40.6238 0 0
        CHANNELS 3 Zrotation Xrotation Yrotation
        JOINT RightToeBase
        {
          OFFSET 12.7242 0 0
          CHANNELS 3 Zrotation Xrotation Yrotation
          End Site
          {
            OFFSET 0 0 0
          }
        }
      }
    }
  }
  JOINT Spine
  {
    OFFSET 0.165834 0.87714 6.61349
    CHANNELS 3 Zrotation Xrotation Yrotation
    JOINT Spine1
    {
      OFFSET 7.38963 1.71661e-005 0
      CHANNELS 3 Zrotation Xrotation Yrotation
      JOINT Spine2
      {
        OFFSET 11.9445 1.14441e-005 0
        CHANNELS 3 Zrotation Xrotation Yrotation
        JOINT Spine3
        {
          OFFSET 14.7254 4.19617e-005 0
          CHANNELS 3 Zrotation Xrotation Yrotation
          JOINT Spine4
          {
            OFFSET 10.9679 0 0
            CHANNELS 3 Zrotation Xrotation Yrotation
            JOINT RightShoulder
            {
              OFFSET 2.46616 -1.6653 3.69651
              CHANNELS 3 Zrotation Xrotation Yrotation
              JOINT RightArm
              {
                OFFSET 13.0012 0 0
                CHANNELS 3 Zrotation Xrotation Yrotation
                JOINT RightForeArm
                {
                  OFFSET 28.7848 1.52588e-005 0
                  CHANNELS 3 Zrotation Xrotation Yrotation
                  JOINT RightHand
                  {
                    OFFSET 26.5688 1.52588e-005 0
                    CHANNELS 3 Zrotation Xrotation Yrotation
                    End Site
                    {
                      OFFSET 0 0 0
                    }
                  }
                }
              }
            }
            JOINT LeftShoulder
            {
              OFFSET 2.38034 -1.29275 -3.7523
              CHANNELS 3 Zrotation Xrotation Yrotation
              JOINT LeftArm
              {
                OFFSET 16.3182 6.10351e-005 0
                CHANNELS 3 Zrotation Xrotation Yrotation
                JOINT LeftForeArm
                {
                  OFFSET 27.0901 0 0
                  CHANNELS 3 Zrotation Xrotation Yrotation
                  JOINT LeftHand
                  {
                    OFFSET 24.5451 1.52588e-005 0
                    CHANNELS 3 Zrotation Xrotation Yrotation
                    End Site
                    {
                      OFFSET 0 0 0
                    }
                  }
                }
              }
            }
            JOINT Neck
            {
              OFFSET 5.0226 -0.0266342 0
              CHANNELS 3 Zrotation Xrotation Yrotation
              JOINT Head
              {
                OFFSET 6.69364 2.86102e-005 0
                CHANNELS 3 Zrotation Xrotation Yrotation
                End Site
                {
                  OFFSET 0 0 0
                }
              }
            }
          }
        }
      }
    }
  }
}
MOTION
Frames:	12
Frame Time:	0.0416667
19.083 99.4507 -12.3646 153.086 -81.5374 153.369 -176.429 15.8833 87.1615 -7.55181 -18.2127 -2.39285 61.882 1.49408 -1.43534 15.7596 -9.0692 4.97133 173.92 -8.03838 90.854 -21.0563 -6.88342 -0.310071 75.4562 -7.01088 -1.61719 28.5446 -0.289221 2.73092 1.53427 8.19997 -90.1058 10.483 3.00762 -0.476973 -1.18458 2.98372 -0.609008 -23.7474 3.01179 0.449842 -3.73478 3.0118 0.449834 87.5744 -27.1759 -112.855 27.1208 -7.89167 -16.566 -2.71053 -29.3679 -21.317 -26.5879 -0.65321 -9.51038 -87.8703 -57.3551 83.1468 -25.968 4.73348 11.0556 5.66967 17.6152 -16.3029 -4.70524 0.0245812 -9.9615 -3.97626 -2.9252 6.44739 -2.3714 -3.56756 -4.71459 
20.8331 98.8201 -5.43992 150.592 -80.5947 151.291 -175.851 13.9994 86.3026 -8.9337 -21.3704 -3.5231 58.6377 -0.256956 -0.154775 13.5 -9.68824 3.08419 172.466 -12.8148 89.5023 -21.1246 -7.89228 0.0271868 74.3781 -7.37188 -2.27716 34.1531 -2.0474 2.79449 1.62064 8.07901 -90.1188 10.7264 3.1726 -0.527788 -0.940823 3.14631 -0.667051 -23.5068 3.1844 0.451105 -3.49419 3.1844 0.451104 86.9203 -28.0912 -113.721 29.0753 -7.00669 -17.017 -1.26663 -27.1431 -20.456 -27.8283 -0.480847 -9.49557 -86.369 -56.9971 85.1821 -27.2808 3.24714 11.5555 5.87866 14.8665 -16.12 -4.14608 -0.0118389 -9.45004 -5.03884 -1.4091 6.6277 -2.70828 -2.01608 -3.43735 
23.0376 98.8466 1.99106 143.98 -79.6954 144.651 -174.647 14.8283 84.84 -18.8602 -14.9402 -4.48704 63.9512 1.73926 1.51837 2.40104 -15.2676 0.524642 169.996 -13.0185 86.505 -27.1512 -10.7335 0.603989 67.1527 -3.5159 -0.940553 44.5033 -5.26713 1.77154 1.61745 7.87807 -89.9967 11.126 3.22105 -0.306231 -0.541002 3.20444 -0.447847 -23.1074 3.164 0.676988 -3.09475 3.16401 0.676984 85.804 -30.1479 -114.889 32.9772 -7.31297 -15.6473 -0.161905 -27.0659 -17.3014 -25.3667 -0.373675 -10.392 -85.1745 -55.6515 86.6891 -28.1547 1.91537 10.1246 6.14666 13.0026 -15.4303 -2.8386 -0.071704 -8.72798 -5.21131 0.502645 6.03412 -3.6521 -0.0344412 -2.36329 
25.7063 99.1148 8.12413 141.729 -77.4061 140.713 -174.544 10.5869 82.0469 -22.4413 -13.8277 -4.8493 68.9832 5.45297 1.54809 3.59402 -15.3811 2.09672 168.469 -5.32809 81.6859 -45.1537 -17.9272 -1.22502 56.589 2.07726 0.689038 35.6323 -2.61054 6.19251 1.57791 7.97602 -89.8033 10.9243 3.23255 0.0867218 -0.742598 3.23324 -0.0557838 -23.3076 3.0569 1.05515 -3.29491 3.05689 1.05515 85.2085 -30.5087 -115.852 37.0826 -8.75201 -12.8639 2.05254 -29.1701 -15.0518 -24.4166 -0.440698 -10.9291 -85.2072 -55.0845 86.5752 -26.7338 1.88134 5.99707 6.47618 12.173 -15.3747 -1.8031 -0.1094 -9.05366 -5.41941 2.53103 7.43573 -3.09927 1.85014 -1.94772 
28.2815 99.0605 12.9599 133.962 -74.0204 131.828 -174.975 6.15514 80.0474 -23.5417 -10.7218 -4.94467 72.1978 7.96078 2.45367 5.25693 -14.5371 2.49241 172.593 4.33658 81.8133 -62.5108 -21.7869 -4.76084 56.1591 2.21793 1.62405 23.7653 1.02388 3.95805 1.37473 8.13144 -89.723 10.609 2.86536 0.29127 -1.05878 2.87541 0.164768 -23.6161 2.64526 1.13955 -3.60349 2.64526 1.13955 85.7856 -30.548 -114.73 40.3823 -9.14601 -10.011 1.52831 -30.8068 -15.5336 -23.2606 -0.547409 -11.1196 -86.0624 -55.6433 85.4308 -22.1835 1.29643 0.357476 8.32952 15.1178 -17.757 -0.832867 -0.172266 -10.3341 -6.29089 4.36374 10.0732 -2.3251 3.49766 -1.85821 
30.5729 99.3077 16.8508 119.219 -67.6879 118.193 -175.757 2.81033 80.0561 -22.911 -3.39795 -3.70838 74.146 10.1492 3.17955 5.63369 -14.7392 3.33694 177.849 11.3351 85.2276 -65.3167 -14.107 -5.98209 61.061 -0.808859 -1.79376 19.4041 1.91507 6.11526 0.920175 8.14012 -89.9257 10.5949 1.86688 -0.0207329 -1.0747 1.86416 -0.10292 -23.62 1.78678 0.541489 -3.60734 1.78678 0.541479 87.1951 -30.8196 -111.897 42.2907 -7.76557 -6.05359 1.72033 -29.3238 -14.8352 -24.1188 -0.463427 -10.8932 -87.113 -56.9338 84.1363 -16.1121 1.02462 -6.75637 9.49075 16.844 -19.4702 -0.543968 -0.198524 -11.1297 -7.89012 5.82872 10.5583 -1.9633 5.06876 0.643004 
33.1234 100.164 20.528 108.055 -56.376 108.583 -176.906 -1.54709 81.3159 -20.7236 7.01808 -1.4451 74.1329 10.4564 2.24435 6.77203 -14.6587 4.60317 -178.807 13.5916 88.5507 -55.495 -5.96132 -7.05203 68.3352 -5.13837 -3.66017 11.8469 4.59461 4.6099 0.178172 8.17392 -90.1882 10.5266 0.268557 -0.397119 -1.14444 0.250825 -0.408548 -23.6793 0.375485 -0.29804 -3.66669 0.375474 -0.29805 87.7559 -30.8409 -110.804 42.6034 -5.18971 -0.951583 1.02874 -26.7228 -14.3294 -23.3435 -0.444974 -10.3136 -87.967 -55.2285 82.6718 -14.4953 1.77678 -14.6578 9.1666 16.742 -19.1288 0.00785856 -0.235557 -11.4317 -7.98495 6.40717 9.43925 -2.1019 5.73026 2.24521 
35.7172 100.48 23.96 99.8447 -42.75 102.455 -177.174 -3.25042 84.0866 -21.4218 21.2351 0.800851 74.8338 11.1287 2.33906 5.74332 -14.8117 3.60735 -178.508 15.8156 90.6995 -40.6439 -8.0962 -6.43696 67.2601 -4.43101 -3.46214 15.9385 3.39077 4.24793 -0.537799 8.10701 -90.4836 10.6557 -1.29369 -0.843438 -1.01481 -1.32955 -0.785684 -23.5511 -0.980423 -1.19325 -3.53847 -0.98042 -1.19324 89.4081 -31.0372 -107.522 42.6712 -3.96852 2.97827 3.10882 -25.6151 -11.8644 -23.7552 -0.656701 -8.58166 -89.0174 -52.2634 80.6351 -15.7438 4.43253 -24.0189 7.84829 17.9651 -16.7594 2.41184 -0.332688 -10.1669 -5.63325 5.96277 5.42362 -3.36155 5.389 5.09573 
38.8263 100.138 27.2724 96.5932 -32.3168 99.771 -176.273 -4.697 86.6235 -23.8675 31.9888 1.8429 77.4302 13.089 2.34282 4.17505 -15.4242 2.85999 -179.896 17.1907 92.5152 -24.2739 -12.3556 -3.55239 64.3565 -2.52241 0.141169 20.4931 2.66351 0.993884 -0.767568 8.17362 -90.6104 10.5175 -1.80907 -1.05175 -1.15255 -1.8536 -0.971102 -23.6911 -1.40937 -1.54684 -3.67842 -1.40937 -1.54684 89.5582 -32.0482 -106.85 41.97 -3.29058 6.48876 4.36825 -24.4837 -9.9671 -22.6481 -0.568751 -8.88552 -89.5622 -49.1048 79.1941 -18.9337 7.40973 -31.7798 7.32687 20.973 -15.6614 2.06442 -0.314662 -10.1708 -2.41845 4.76792 0.879495 -4.23867 4.51655 5.88776 
42.9674 99.1603 30.6739 95.1223 -26.0298 97.4892 -175.301 -6.72322 88.0633 -25.9653 39.4306 2.07343 79.1064 14.8847 3.08097 4.53072 -15.4424 3.31884 179.088 16.889 94.7595 -8.19543 -13.8367 -0.49958 62.0993 -1.9163 0.147702 29.7016 -0.356868 0.341047 -0.844524 8.2005 -90.5389 10.4653 -1.92947 -0.900081 -1.20451 -1.9672 -0.814274 -23.7454 -1.56976 -1.43841 -3.73274 -1.56975 -1.43841 88.954 -33.0787 -107.612 41.1418 -4.41544 7.75182 4.67126 -24.4221 -9.37504 -22.5111 -0.720739 -7.9252 -89.928 -48.6996 78.5544 -21.1701 9.20111 -33.1943 8.77519 24.0318 -18.3644 2.29456 -0.350999 -10.7554 -0.426476 4.62632 -3.29607 -4.47381 4.87682 6.95636 
48.7428 97.9679 34.2533 94.123 -20.2358 96.1491 -173.769 -10.277 90.43 -27.0877 46.6149 2.66488 79.8564 16.4053 4.28419 4.07561 -15.965 3.73607 -179.52 19.282 97.0194 -9.78178 -19.8361 -0.7609 60.9341 -0.98913 0.0342083 31.8278 -1.05963 0.0869508 -1.05566 8.09625 -90.5305 10.6736 -2.34668 -0.840797 -0.995479 -2.38141 -0.736648 -23.5415 -1.98549 -1.50738 -3.52883 -1.9855 -1.50738 89.318 -33.3911 -106.81 40.2583 -4.36002 7.11969 4.38292 -25.2857 -10.0671 -21.5718 -0.536817 -9.51286 -90.1234 -48.955 78.3147 -22.9183 11.445 -30.5088 7.7101 24.5618 -18.0773 3.28746 -0.403105 -10.7018 0.45316 4.71718 -5.15381 -4.51411 5.25371 6.79788 
56.6905 97.4341 37.5536 94.7833 -15.0147 97.1394 -171.922 -15.333 93.9911 -29.1577 50.413 5.28245 75.1268 13.2563 5.83909 6.46562 -12.1923 -0.670746 -176.397 20.9887 99.0312 -22.0371 -23.7499 -3.75627 58.6155 0.633594 0.697319 26.4711 0.451306 2.28269 -1.17722 8.01189 -90.8142 10.8354 -2.71989 -1.36349 -0.833251 -2.77729 -1.2424 -23.3788 -2.18443 -2.11803 -3.36614 -2.18443 -2.11803 89.8187 -33.7969 -105.724 38.4614 -3.47495 6.33739 2.82883 -25.4831 -12.5835 -22.3692 -0.593826 -9.09593 -90.4365 -50.7765 78.2466 -26.0144 12.1913 -25.0123 3.91703 24.493 -11.7121 1.88947 -0.26227 -8.9352 0.994464 4.9035 -3.51536 -4.78125 5.22157 5.92985 
